<svg version="1.0" xmlns="http://www.w3.org/2000/svg"
 width="155.000000pt" height="120.000000pt" viewBox="0 0 155.000000 120.000000"
 preserveAspectRatio="xMidYMid meet">
<g transform="translate(0.000000,120.000000) scale(0.100000,-0.100000)"
fill="#000000" stroke="none">
<path d="M0 600 l0 -600 775 0 775 0 0 600 0 600 -775 0 -775 0 0 -600z m1540
510 l0 -80 -765 0 -765 0 0 80 0 80 765 0 765 0 0 -80z m-1210 -535 l0 -435
-160 0 -160 0 0 435 0 435 160 0 160 0 0 -435z m880 0 l0 -435 -435 0 -435 0
0 435 0 435 435 0 435 0 0 -435z m330 0 l0 -435 -160 0 -160 0 0 435 0 435
160 0 160 0 0 -435z m0 -510 l0 -55 -765 0 -765 0 0 55 0 55 765 0 765 0 0
-55z"/>
</g>
</svg>